M48
;GenerationSoftware,Autodesk,EAGLE,9.5.2*%
;CreationDate,2020-01-27T09:51:26Z*%
FMAT,2
ICI,OFF
METRIC,TZ,000.000
T4C0.350
T3C0.813
T2C1.016
T1C1.200
%
G90
M71
T1
X31750Y24130
X29210Y24130
X30480Y19050
X20320Y19050
X21590Y24130
X38100Y19050
X36830Y24130
X22860Y19050
X24130Y24130
X25400Y19050
X26670Y24130
X27940Y19050
X35560Y19050
X34290Y24130
X33020Y19050
T2
X34290Y48260
X31750Y48260
X29210Y48260
X26670Y48260
X36830Y48260
X39370Y48260
X24130Y48260
X31750Y6350
X21590Y48260
X29210Y6350
X26670Y6350
X72390Y38100
X72390Y35560
X2540Y35560
X2540Y38100
T3
X2540Y50800
X73660Y43180
X17780Y6350
X20320Y6350
X43180Y6350
X35560Y6350
X35560Y8890
X43180Y8890
X35560Y11430
X43180Y11430
X24130Y5080
X24130Y7620
X25400Y30480
X25400Y33020
X73660Y50800
X46990Y30480
X46990Y38100
X2540Y43180
T4
X29210Y25400
X29210Y31750
X57150Y20320
X62230Y25400
X62230Y40640
X17780Y10160
X50800Y6350
X52070Y39370
X60960Y44450
X31750Y7620
X49530Y30480
X7620Y20320
X3810Y35560
X7620Y40640
X38100Y17780
X36830Y11430
X20320Y17780
X20320Y12700
X20320Y10160
X27940Y10160
X34290Y25400
X34290Y46990
X31750Y25400
X31750Y46990
X27940Y20320
X39370Y46990
X26670Y25400
X21590Y46990
X26670Y46990
X35560Y5080
X48260Y24130
X64770Y7620
X2540Y54610
X29210Y46990
X25400Y20320
X21783Y30480
X46990Y20320
X21590Y6350
X30480Y11430
X48260Y36830
M30