G04 EAGLE Gerber RS-274X export*
G75*
%MOMM*%
%FSLAX34Y34*%
%LPD*%
%INBottom Copper*%
%IPPOS*%
%AMOC8*
5,1,8,0,0,1.08239X$1,22.5*%
G01*
%ADD10P,1.429621X8X112.500000*%
%ADD11C,1.524000*%
%ADD12C,1.800000*%
%ADD13P,1.429621X8X22.500000*%
%ADD14P,1.429621X8X202.500000*%
%ADD15C,0.756400*%
%ADD16C,0.304800*%
%ADD17C,0.152400*%

G36*
X744586Y10175D02*
X744586Y10175D01*
X744712Y10182D01*
X744759Y10195D01*
X744807Y10201D01*
X744926Y10243D01*
X745047Y10278D01*
X745089Y10302D01*
X745135Y10318D01*
X745241Y10387D01*
X745351Y10448D01*
X745397Y10488D01*
X745427Y10507D01*
X745461Y10542D01*
X745537Y10607D01*
X763893Y28963D01*
X763972Y29062D01*
X764056Y29155D01*
X764080Y29198D01*
X764110Y29236D01*
X764164Y29350D01*
X764225Y29460D01*
X764238Y29507D01*
X764259Y29551D01*
X764285Y29674D01*
X764320Y29796D01*
X764325Y29857D01*
X764332Y29891D01*
X764331Y29939D01*
X764339Y30040D01*
X764339Y329384D01*
X764325Y329509D01*
X764318Y329636D01*
X764305Y329682D01*
X764299Y329730D01*
X764257Y329849D01*
X764222Y329971D01*
X764198Y330013D01*
X764182Y330058D01*
X764113Y330164D01*
X764052Y330275D01*
X764012Y330321D01*
X763993Y330351D01*
X763958Y330385D01*
X763893Y330461D01*
X763077Y331277D01*
X762978Y331356D01*
X762884Y331440D01*
X762842Y331464D01*
X762804Y331494D01*
X762690Y331548D01*
X762579Y331609D01*
X762533Y331622D01*
X762489Y331643D01*
X762366Y331669D01*
X762244Y331704D01*
X762183Y331709D01*
X762148Y331716D01*
X762100Y331715D01*
X762000Y331723D01*
X711831Y331723D01*
X661477Y382077D01*
X661378Y382156D01*
X661284Y382240D01*
X661242Y382264D01*
X661204Y382294D01*
X661090Y382348D01*
X660979Y382409D01*
X660933Y382422D01*
X660889Y382443D01*
X660766Y382469D01*
X660644Y382504D01*
X660583Y382509D01*
X660548Y382516D01*
X660500Y382515D01*
X660400Y382523D01*
X508000Y382523D01*
X507974Y382520D01*
X507948Y382522D01*
X507801Y382500D01*
X507654Y382483D01*
X507629Y382475D01*
X507603Y382471D01*
X507465Y382416D01*
X507326Y382366D01*
X507304Y382352D01*
X507279Y382342D01*
X507158Y382257D01*
X507033Y382177D01*
X507015Y382158D01*
X506993Y382143D01*
X506894Y382033D01*
X506791Y381926D01*
X506777Y381904D01*
X506760Y381884D01*
X506688Y381754D01*
X506612Y381627D01*
X506604Y381602D01*
X506591Y381579D01*
X506551Y381436D01*
X506506Y381295D01*
X506504Y381269D01*
X506496Y381244D01*
X506477Y381000D01*
X506477Y317500D01*
X506480Y317474D01*
X506478Y317448D01*
X506500Y317301D01*
X506517Y317154D01*
X506525Y317129D01*
X506529Y317103D01*
X506584Y316965D01*
X506634Y316826D01*
X506648Y316804D01*
X506658Y316779D01*
X506743Y316658D01*
X506823Y316533D01*
X506842Y316515D01*
X506857Y316493D01*
X506967Y316394D01*
X507074Y316291D01*
X507096Y316277D01*
X507116Y316260D01*
X507246Y316188D01*
X507373Y316112D01*
X507398Y316104D01*
X507421Y316091D01*
X507564Y316051D01*
X507705Y316006D01*
X507731Y316004D01*
X507756Y315996D01*
X508000Y315977D01*
X531877Y315977D01*
X531877Y217423D01*
X495300Y217423D01*
X495274Y217420D01*
X495248Y217422D01*
X495101Y217400D01*
X494954Y217383D01*
X494929Y217375D01*
X494903Y217371D01*
X494765Y217316D01*
X494626Y217266D01*
X494604Y217252D01*
X494579Y217242D01*
X494458Y217157D01*
X494333Y217077D01*
X494315Y217058D01*
X494293Y217043D01*
X494194Y216933D01*
X494091Y216826D01*
X494077Y216804D01*
X494060Y216784D01*
X493988Y216654D01*
X493912Y216527D01*
X493904Y216502D01*
X493891Y216479D01*
X493851Y216336D01*
X493806Y216195D01*
X493804Y216169D01*
X493796Y216144D01*
X493777Y215900D01*
X493777Y203831D01*
X468823Y178877D01*
X468744Y178778D01*
X468660Y178684D01*
X468636Y178642D01*
X468606Y178604D01*
X468552Y178490D01*
X468491Y178379D01*
X468478Y178333D01*
X468457Y178289D01*
X468431Y178166D01*
X468396Y178044D01*
X468392Y177983D01*
X468384Y177948D01*
X468385Y177900D01*
X468377Y177800D01*
X468377Y153031D01*
X443869Y128523D01*
X419100Y128523D01*
X418974Y128509D01*
X418848Y128502D01*
X418802Y128489D01*
X418754Y128483D01*
X418635Y128441D01*
X418513Y128406D01*
X418471Y128382D01*
X418426Y128366D01*
X418319Y128297D01*
X418209Y128236D01*
X418163Y128196D01*
X418133Y128177D01*
X418099Y128142D01*
X418023Y128077D01*
X405769Y115823D01*
X393700Y115823D01*
X393674Y115820D01*
X393648Y115822D01*
X393501Y115800D01*
X393354Y115783D01*
X393329Y115775D01*
X393303Y115771D01*
X393165Y115716D01*
X393026Y115666D01*
X393004Y115652D01*
X392979Y115642D01*
X392858Y115557D01*
X392733Y115477D01*
X392715Y115458D01*
X392693Y115443D01*
X392594Y115333D01*
X392491Y115226D01*
X392477Y115204D01*
X392460Y115184D01*
X392388Y115054D01*
X392312Y114927D01*
X392304Y114902D01*
X392291Y114879D01*
X392251Y114736D01*
X392206Y114595D01*
X392204Y114569D01*
X392196Y114544D01*
X392177Y114300D01*
X392177Y26923D01*
X165731Y26923D01*
X141223Y51431D01*
X141223Y139700D01*
X141209Y139826D01*
X141202Y139952D01*
X141189Y139998D01*
X141183Y140046D01*
X141141Y140165D01*
X141106Y140287D01*
X141082Y140329D01*
X141066Y140374D01*
X140997Y140481D01*
X140936Y140591D01*
X140896Y140637D01*
X140877Y140667D01*
X140842Y140701D01*
X140777Y140777D01*
X128523Y153031D01*
X128523Y266069D01*
X204277Y341823D01*
X204356Y341922D01*
X204440Y342016D01*
X204464Y342058D01*
X204494Y342096D01*
X204548Y342210D01*
X204609Y342321D01*
X204622Y342367D01*
X204643Y342411D01*
X204669Y342534D01*
X204704Y342656D01*
X204709Y342717D01*
X204716Y342752D01*
X204715Y342800D01*
X204723Y342900D01*
X204723Y393700D01*
X204709Y393826D01*
X204702Y393952D01*
X204689Y393998D01*
X204683Y394046D01*
X204641Y394165D01*
X204606Y394287D01*
X204582Y394329D01*
X204566Y394374D01*
X204497Y394481D01*
X204436Y394591D01*
X204396Y394637D01*
X204377Y394667D01*
X204342Y394701D01*
X204277Y394777D01*
X191577Y407477D01*
X191478Y407556D01*
X191384Y407640D01*
X191342Y407664D01*
X191304Y407694D01*
X191190Y407748D01*
X191079Y407809D01*
X191033Y407822D01*
X190989Y407843D01*
X190866Y407869D01*
X190744Y407904D01*
X190683Y407909D01*
X190648Y407916D01*
X190600Y407915D01*
X190500Y407923D01*
X101600Y407923D01*
X101574Y407920D01*
X101548Y407922D01*
X101401Y407900D01*
X101254Y407883D01*
X101229Y407875D01*
X101203Y407871D01*
X101065Y407816D01*
X100926Y407766D01*
X100904Y407752D01*
X100879Y407742D01*
X100758Y407657D01*
X100633Y407577D01*
X100615Y407558D01*
X100593Y407543D01*
X100494Y407433D01*
X100391Y407326D01*
X100377Y407304D01*
X100360Y407284D01*
X100288Y407154D01*
X100212Y407027D01*
X100204Y407002D01*
X100191Y406979D01*
X100151Y406836D01*
X100106Y406695D01*
X100104Y406669D01*
X100096Y406644D01*
X100077Y406400D01*
X100077Y394331D01*
X87823Y382077D01*
X87744Y381978D01*
X87660Y381884D01*
X87636Y381842D01*
X87606Y381804D01*
X87552Y381690D01*
X87491Y381579D01*
X87478Y381533D01*
X87457Y381489D01*
X87431Y381366D01*
X87396Y381244D01*
X87392Y381183D01*
X87384Y381148D01*
X87385Y381100D01*
X87377Y381000D01*
X87377Y355600D01*
X87391Y355474D01*
X87398Y355348D01*
X87411Y355302D01*
X87417Y355254D01*
X87459Y355135D01*
X87494Y355013D01*
X87518Y354971D01*
X87534Y354926D01*
X87603Y354819D01*
X87664Y354709D01*
X87704Y354663D01*
X87723Y354633D01*
X87758Y354599D01*
X87823Y354523D01*
X100077Y342269D01*
X100077Y153923D01*
X89531Y153923D01*
X65023Y178431D01*
X65023Y330200D01*
X65020Y330226D01*
X65022Y330252D01*
X65000Y330399D01*
X64983Y330546D01*
X64975Y330571D01*
X64971Y330597D01*
X64916Y330735D01*
X64866Y330874D01*
X64852Y330896D01*
X64842Y330921D01*
X64757Y331042D01*
X64677Y331167D01*
X64658Y331185D01*
X64643Y331207D01*
X64533Y331306D01*
X64426Y331409D01*
X64404Y331423D01*
X64384Y331440D01*
X64254Y331512D01*
X64127Y331588D01*
X64102Y331596D01*
X64079Y331609D01*
X63936Y331649D01*
X63795Y331694D01*
X63769Y331696D01*
X63744Y331704D01*
X63500Y331723D01*
X11684Y331723D01*
X11658Y331720D01*
X11632Y331722D01*
X11485Y331700D01*
X11338Y331683D01*
X11313Y331675D01*
X11287Y331671D01*
X11149Y331616D01*
X11010Y331566D01*
X10988Y331552D01*
X10963Y331542D01*
X10842Y331457D01*
X10717Y331377D01*
X10699Y331358D01*
X10677Y331343D01*
X10578Y331233D01*
X10475Y331126D01*
X10461Y331104D01*
X10444Y331084D01*
X10372Y330954D01*
X10296Y330827D01*
X10288Y330802D01*
X10275Y330779D01*
X10235Y330636D01*
X10190Y330495D01*
X10188Y330469D01*
X10180Y330444D01*
X10161Y330200D01*
X10161Y30240D01*
X10175Y30114D01*
X10182Y29988D01*
X10195Y29941D01*
X10201Y29893D01*
X10243Y29774D01*
X10278Y29653D01*
X10302Y29611D01*
X10318Y29565D01*
X10387Y29459D01*
X10448Y29349D01*
X10488Y29303D01*
X10507Y29273D01*
X10542Y29239D01*
X10607Y29163D01*
X29163Y10607D01*
X29262Y10528D01*
X29355Y10444D01*
X29398Y10420D01*
X29436Y10390D01*
X29550Y10336D01*
X29660Y10275D01*
X29707Y10262D01*
X29751Y10241D01*
X29874Y10215D01*
X29996Y10180D01*
X30057Y10175D01*
X30091Y10168D01*
X30139Y10169D01*
X30240Y10161D01*
X744460Y10161D01*
X744586Y10175D01*
G37*
G36*
X190526Y417580D02*
X190526Y417580D01*
X190552Y417578D01*
X190699Y417600D01*
X190846Y417617D01*
X190871Y417625D01*
X190897Y417629D01*
X191035Y417684D01*
X191174Y417734D01*
X191196Y417748D01*
X191221Y417758D01*
X191342Y417843D01*
X191467Y417923D01*
X191485Y417942D01*
X191507Y417957D01*
X191606Y418067D01*
X191709Y418174D01*
X191723Y418196D01*
X191740Y418216D01*
X191812Y418346D01*
X191888Y418473D01*
X191896Y418498D01*
X191909Y418521D01*
X191949Y418664D01*
X191994Y418805D01*
X191996Y418831D01*
X192004Y418856D01*
X192023Y419100D01*
X192023Y506477D01*
X417577Y506477D01*
X417577Y419100D01*
X417580Y419074D01*
X417578Y419048D01*
X417600Y418901D01*
X417617Y418754D01*
X417625Y418729D01*
X417629Y418703D01*
X417684Y418565D01*
X417734Y418426D01*
X417748Y418404D01*
X417758Y418379D01*
X417843Y418258D01*
X417923Y418133D01*
X417942Y418115D01*
X417957Y418093D01*
X418067Y417994D01*
X418174Y417891D01*
X418196Y417877D01*
X418216Y417860D01*
X418346Y417788D01*
X418473Y417712D01*
X418498Y417704D01*
X418521Y417691D01*
X418664Y417651D01*
X418805Y417606D01*
X418831Y417604D01*
X418856Y417596D01*
X419100Y417577D01*
X673100Y417577D01*
X673126Y417580D01*
X673152Y417578D01*
X673299Y417600D01*
X673446Y417617D01*
X673471Y417625D01*
X673497Y417629D01*
X673635Y417684D01*
X673774Y417734D01*
X673796Y417748D01*
X673821Y417758D01*
X673942Y417843D01*
X674067Y417923D01*
X674085Y417942D01*
X674107Y417957D01*
X674206Y418067D01*
X674309Y418174D01*
X674323Y418196D01*
X674340Y418216D01*
X674412Y418346D01*
X674488Y418473D01*
X674496Y418498D01*
X674509Y418521D01*
X674549Y418664D01*
X674594Y418805D01*
X674596Y418831D01*
X674604Y418856D01*
X674623Y419100D01*
X674623Y556516D01*
X674620Y556542D01*
X674622Y556568D01*
X674600Y556715D01*
X674583Y556862D01*
X674575Y556887D01*
X674571Y556913D01*
X674516Y557051D01*
X674466Y557190D01*
X674452Y557212D01*
X674442Y557237D01*
X674357Y557358D01*
X674277Y557483D01*
X674258Y557501D01*
X674243Y557523D01*
X674133Y557622D01*
X674026Y557725D01*
X674004Y557739D01*
X673984Y557756D01*
X673854Y557828D01*
X673727Y557904D01*
X673702Y557912D01*
X673679Y557925D01*
X673536Y557965D01*
X673395Y558010D01*
X673369Y558012D01*
X673344Y558020D01*
X673100Y558039D01*
X76200Y558039D01*
X76174Y558036D01*
X76148Y558038D01*
X76001Y558016D01*
X75854Y557999D01*
X75829Y557991D01*
X75803Y557987D01*
X75665Y557932D01*
X75526Y557882D01*
X75504Y557868D01*
X75479Y557858D01*
X75358Y557773D01*
X75233Y557693D01*
X75215Y557674D01*
X75193Y557659D01*
X75094Y557549D01*
X74991Y557442D01*
X74977Y557420D01*
X74960Y557400D01*
X74888Y557270D01*
X74812Y557143D01*
X74804Y557118D01*
X74791Y557095D01*
X74751Y556952D01*
X74706Y556811D01*
X74704Y556785D01*
X74696Y556760D01*
X74677Y556516D01*
X74677Y546100D01*
X74691Y545974D01*
X74698Y545848D01*
X74711Y545802D01*
X74717Y545754D01*
X74759Y545635D01*
X74794Y545513D01*
X74818Y545471D01*
X74834Y545426D01*
X74903Y545319D01*
X74964Y545209D01*
X75004Y545163D01*
X75023Y545133D01*
X75058Y545099D01*
X75123Y545023D01*
X87377Y532769D01*
X87377Y419100D01*
X87380Y419074D01*
X87378Y419048D01*
X87400Y418901D01*
X87417Y418754D01*
X87425Y418729D01*
X87429Y418703D01*
X87484Y418565D01*
X87534Y418426D01*
X87548Y418404D01*
X87558Y418379D01*
X87643Y418258D01*
X87723Y418133D01*
X87742Y418115D01*
X87757Y418093D01*
X87867Y417994D01*
X87974Y417891D01*
X87996Y417877D01*
X88016Y417860D01*
X88146Y417788D01*
X88273Y417712D01*
X88298Y417704D01*
X88321Y417691D01*
X88464Y417651D01*
X88605Y417606D01*
X88631Y417604D01*
X88656Y417596D01*
X88900Y417577D01*
X190500Y417577D01*
X190526Y417580D01*
G37*
%LPC*%
G36*
X645331Y64289D02*
X645331Y64289D01*
X640953Y66103D01*
X637603Y69453D01*
X635789Y73831D01*
X635789Y78569D01*
X637603Y82947D01*
X640953Y86297D01*
X645331Y88111D01*
X650069Y88111D01*
X654447Y86297D01*
X657797Y82947D01*
X659611Y78569D01*
X659611Y73831D01*
X657797Y69453D01*
X654447Y66103D01*
X650069Y64289D01*
X645331Y64289D01*
G37*
%LPD*%
%LPC*%
G36*
X433831Y116331D02*
X433831Y116331D01*
X433831Y123445D01*
X435588Y123445D01*
X440945Y118088D01*
X440945Y116331D01*
X433831Y116331D01*
G37*
%LPD*%
%LPC*%
G36*
X433831Y90931D02*
X433831Y90931D01*
X433831Y98045D01*
X435588Y98045D01*
X440945Y92688D01*
X440945Y90931D01*
X433831Y90931D01*
G37*
%LPD*%
%LPC*%
G36*
X433831Y65531D02*
X433831Y65531D01*
X433831Y72645D01*
X435588Y72645D01*
X440945Y67288D01*
X440945Y65531D01*
X433831Y65531D01*
G37*
%LPD*%
%LPC*%
G36*
X422655Y116331D02*
X422655Y116331D01*
X422655Y118088D01*
X428012Y123445D01*
X429769Y123445D01*
X429769Y116331D01*
X422655Y116331D01*
G37*
%LPD*%
%LPC*%
G36*
X422655Y90931D02*
X422655Y90931D01*
X422655Y92688D01*
X428012Y98045D01*
X429769Y98045D01*
X429769Y90931D01*
X422655Y90931D01*
G37*
%LPD*%
%LPC*%
G36*
X422655Y65531D02*
X422655Y65531D01*
X422655Y67288D01*
X428012Y72645D01*
X429769Y72645D01*
X429769Y65531D01*
X422655Y65531D01*
G37*
%LPD*%
%LPC*%
G36*
X433831Y105155D02*
X433831Y105155D01*
X433831Y112269D01*
X440945Y112269D01*
X440945Y110512D01*
X435588Y105155D01*
X433831Y105155D01*
G37*
%LPD*%
%LPC*%
G36*
X433831Y79755D02*
X433831Y79755D01*
X433831Y86869D01*
X440945Y86869D01*
X440945Y85112D01*
X435588Y79755D01*
X433831Y79755D01*
G37*
%LPD*%
%LPC*%
G36*
X433831Y54355D02*
X433831Y54355D01*
X433831Y61469D01*
X440945Y61469D01*
X440945Y59712D01*
X435588Y54355D01*
X433831Y54355D01*
G37*
%LPD*%
%LPC*%
G36*
X428012Y105155D02*
X428012Y105155D01*
X422655Y110512D01*
X422655Y112269D01*
X429769Y112269D01*
X429769Y105155D01*
X428012Y105155D01*
G37*
%LPD*%
%LPC*%
G36*
X428012Y79755D02*
X428012Y79755D01*
X422655Y85112D01*
X422655Y86869D01*
X429769Y86869D01*
X429769Y79755D01*
X428012Y79755D01*
G37*
%LPD*%
%LPC*%
G36*
X428012Y54355D02*
X428012Y54355D01*
X422655Y59712D01*
X422655Y61469D01*
X429769Y61469D01*
X429769Y54355D01*
X428012Y54355D01*
G37*
%LPD*%
D10*
X241300Y50800D03*
X241300Y76200D03*
X254000Y304800D03*
X254000Y330200D03*
D11*
X215900Y474980D02*
X215900Y490220D01*
X241300Y490220D02*
X241300Y474980D01*
X393700Y474980D02*
X393700Y490220D01*
X368300Y490220D02*
X368300Y474980D01*
X266700Y474980D02*
X266700Y490220D01*
X292100Y490220D02*
X292100Y474980D01*
X317500Y474980D02*
X317500Y490220D01*
X342900Y490220D02*
X342900Y474980D01*
D10*
X469900Y304800D03*
X469900Y381000D03*
D12*
X292100Y250300D02*
X292100Y232300D01*
X304800Y199500D02*
X304800Y181500D01*
X317500Y232300D02*
X317500Y250300D01*
X330200Y199500D02*
X330200Y181500D01*
X342900Y232300D02*
X342900Y250300D01*
X355600Y199500D02*
X355600Y181500D01*
X279400Y181500D02*
X279400Y199500D01*
X266700Y232300D02*
X266700Y250300D01*
X254000Y199500D02*
X254000Y181500D01*
X241300Y232300D02*
X241300Y250300D01*
X228600Y199500D02*
X228600Y181500D01*
X368300Y232300D02*
X368300Y250300D01*
X381000Y199500D02*
X381000Y181500D01*
X215900Y232300D02*
X215900Y250300D01*
X203200Y199500D02*
X203200Y181500D01*
D11*
X33020Y381000D02*
X17780Y381000D01*
X17780Y355600D02*
X33020Y355600D01*
X716280Y355600D02*
X731520Y355600D01*
X731520Y381000D02*
X716280Y381000D01*
D10*
X25400Y431800D03*
X25400Y508000D03*
X736600Y431800D03*
X736600Y508000D03*
D13*
X177800Y63500D03*
X203200Y63500D03*
D14*
X431800Y63500D03*
X355600Y63500D03*
D11*
X266700Y55880D02*
X266700Y71120D01*
X292100Y71120D02*
X292100Y55880D01*
X317500Y55880D02*
X317500Y71120D01*
D13*
X355600Y88900D03*
X431800Y88900D03*
X355600Y114300D03*
X431800Y114300D03*
D15*
X292100Y254000D03*
D16*
X292100Y317500D01*
D15*
X292100Y317500D03*
X571500Y203200D03*
D16*
X622300Y254000D01*
D15*
X622300Y254000D03*
D16*
X622300Y406400D01*
D15*
X622300Y406400D03*
X177800Y101600D03*
D16*
X139700Y101600D02*
X114300Y76200D01*
X114300Y25400D01*
X127000Y12700D01*
X469900Y12700D01*
X508000Y50800D01*
X508000Y63500D01*
D15*
X508000Y63500D03*
D16*
X177800Y101600D02*
X139700Y101600D01*
D15*
X520700Y393700D03*
D16*
X571500Y444500D01*
X609600Y444500D01*
D15*
X609600Y444500D03*
X317500Y76200D03*
D16*
X279400Y114300D01*
X203200Y114300D01*
X152400Y165100D01*
X152400Y266700D01*
X190500Y304800D01*
X217830Y304800D01*
D15*
X217830Y304800D03*
X266700Y469900D03*
X254000Y203200D03*
D17*
X277986Y254975D02*
X266700Y266261D01*
X277986Y254975D02*
X277986Y227186D01*
X254000Y203200D01*
X266700Y266261D02*
X266700Y469900D01*
D15*
X292100Y469900D03*
X279400Y203200D03*
D17*
X306214Y230014D01*
X306214Y254975D01*
X330200Y278961D02*
X330200Y419100D01*
X330200Y278961D02*
X306214Y254975D01*
X330200Y419100D02*
X292100Y457200D01*
X292100Y469900D01*
D15*
X317500Y469900D03*
D17*
X342900Y444500D02*
X342900Y279400D01*
X317500Y254000D01*
X342900Y444500D02*
X317500Y469900D01*
D15*
X317500Y254000D03*
X342900Y469900D03*
D17*
X368300Y444500D01*
X368300Y279400D01*
X342900Y254000D01*
D15*
X342900Y254000D03*
X279400Y101600D03*
D17*
X203200Y101600D01*
D15*
X203200Y101600D03*
X203200Y127000D03*
D17*
X203200Y177800D01*
D15*
X203200Y177800D03*
X368300Y114300D03*
D17*
X381000Y127000D01*
X381000Y177800D01*
D15*
X381000Y177800D03*
X76200Y406400D03*
D17*
X76200Y393700D01*
X38100Y355600D01*
D15*
X38100Y355600D03*
X76200Y203200D03*
D16*
X76200Y342900D01*
X63500Y355600D01*
X38100Y355600D01*
D15*
X495300Y304800D03*
D17*
X482600Y317500D01*
X482600Y368300D01*
D15*
X482600Y368300D03*
X304800Y114300D03*
D17*
X304800Y190500D01*
D15*
X469900Y203200D03*
D17*
X482600Y215900D01*
X482600Y241300D01*
D15*
X482600Y241300D03*
X215900Y63500D03*
D17*
X241300Y38100D01*
X342900Y38100D01*
X355600Y50800D01*
D15*
X355600Y50800D03*
X215900Y469900D03*
D17*
X228600Y457200D01*
X228600Y292100D01*
X266700Y254000D01*
D15*
X266700Y254000D03*
X393700Y469900D03*
D17*
X393700Y292100D01*
X354186Y252586D02*
X354186Y227625D01*
X330200Y203639D02*
X330200Y190500D01*
X330200Y203639D02*
X354186Y227625D01*
X354186Y252586D02*
X393700Y292100D01*
M02*
