G04 EAGLE Gerber RS-274X export*
G75*
%MOMM*%
%FSLAX34Y34*%
%LPD*%
%IN*%
%IPPOS*%
%AMOC8*
5,1,8,0,0,1.08239X$1,22.5*%
G01*
%ADD10C,0.254000*%


D10*
X0Y25400D02*
X25400Y0D01*
X749300Y0D01*
X774500Y25200D01*
X774500Y546300D01*
X752600Y568200D01*
X22100Y568200D01*
X0Y546100D01*
X0Y25400D01*
X27150Y545928D02*
X27083Y545590D01*
X26951Y545271D01*
X26759Y544984D01*
X26516Y544741D01*
X26229Y544549D01*
X25910Y544417D01*
X25572Y544350D01*
X25228Y544350D01*
X24890Y544417D01*
X24571Y544549D01*
X24284Y544741D01*
X24041Y544984D01*
X23849Y545271D01*
X23717Y545590D01*
X23650Y545928D01*
X23650Y546272D01*
X23717Y546610D01*
X23849Y546929D01*
X24041Y547216D01*
X24284Y547459D01*
X24571Y547651D01*
X24890Y547783D01*
X25228Y547850D01*
X25572Y547850D01*
X25910Y547783D01*
X26229Y547651D01*
X26516Y547459D01*
X26759Y547216D01*
X26951Y546929D01*
X27083Y546610D01*
X27150Y546272D01*
X27150Y545928D01*
X649450Y76028D02*
X649383Y75690D01*
X649251Y75371D01*
X649059Y75084D01*
X648816Y74841D01*
X648529Y74649D01*
X648210Y74517D01*
X647872Y74450D01*
X647528Y74450D01*
X647190Y74517D01*
X646871Y74649D01*
X646584Y74841D01*
X646341Y75084D01*
X646149Y75371D01*
X646017Y75690D01*
X645950Y76028D01*
X645950Y76372D01*
X646017Y76710D01*
X646149Y77029D01*
X646341Y77316D01*
X646584Y77559D01*
X646871Y77751D01*
X647190Y77883D01*
X647528Y77950D01*
X647872Y77950D01*
X648210Y77883D01*
X648529Y77751D01*
X648816Y77559D01*
X649059Y77316D01*
X649251Y77029D01*
X649383Y76710D01*
X649450Y76372D01*
X649450Y76028D01*
M02*
