G04 EAGLE Gerber RS-274X export*
G75*
%MOMM*%
%FSLAX34Y34*%
%LPD*%
%INSoldermask Top*%
%IPPOS*%
%AMOC8*
5,1,8,0,0,1.08239X$1,22.5*%
G01*
%ADD10C,0.553200*%
%ADD11P,1.649562X8X112.500000*%
%ADD12C,1.727200*%
%ADD13R,1.903200X2.003200*%
%ADD14C,2.003200*%
%ADD15R,6.403200X5.603200*%
%ADD16R,1.803200X1.203200*%
%ADD17R,1.403200X1.403200*%
%ADD18R,3.703200X3.003200*%
%ADD19P,1.649562X8X22.500000*%
%ADD20P,1.649562X8X202.500000*%
%ADD21C,0.959600*%


D10*
X25400Y546100D03*
X647700Y76200D03*
D11*
X241300Y50800D03*
X241300Y76200D03*
X254000Y304800D03*
X254000Y330200D03*
D12*
X215900Y474980D02*
X215900Y490220D01*
X241300Y490220D02*
X241300Y474980D01*
X393700Y474980D02*
X393700Y490220D01*
X368300Y490220D02*
X368300Y474980D01*
D13*
X723900Y271600D03*
X723900Y312600D03*
X723900Y195400D03*
X723900Y236400D03*
X723900Y119200D03*
X723900Y160200D03*
X723900Y43000D03*
X723900Y84000D03*
D12*
X266700Y474980D02*
X266700Y490220D01*
X292100Y490220D02*
X292100Y474980D01*
X317500Y474980D02*
X317500Y490220D01*
X342900Y490220D02*
X342900Y474980D01*
D11*
X469900Y304800D03*
X469900Y381000D03*
D14*
X292100Y250300D02*
X292100Y232300D01*
X304800Y199500D02*
X304800Y181500D01*
X317500Y232300D02*
X317500Y250300D01*
X330200Y199500D02*
X330200Y181500D01*
X342900Y232300D02*
X342900Y250300D01*
X355600Y199500D02*
X355600Y181500D01*
X279400Y181500D02*
X279400Y199500D01*
X266700Y232300D02*
X266700Y250300D01*
X254000Y199500D02*
X254000Y181500D01*
X241300Y232300D02*
X241300Y250300D01*
X228600Y199500D02*
X228600Y181500D01*
X368300Y232300D02*
X368300Y250300D01*
X381000Y199500D02*
X381000Y181500D01*
X215900Y232300D02*
X215900Y250300D01*
X203200Y199500D02*
X203200Y181500D01*
D15*
X571100Y266700D03*
D16*
X498100Y289500D03*
X498100Y243900D03*
D17*
X63500Y455000D03*
X63500Y434000D03*
X63500Y505800D03*
X63500Y484800D03*
X711200Y455000D03*
X711200Y434000D03*
X711200Y505800D03*
X711200Y484800D03*
D12*
X33020Y381000D02*
X17780Y381000D01*
X17780Y355600D02*
X33020Y355600D01*
X716280Y355600D02*
X731520Y355600D01*
X731520Y381000D02*
X716280Y381000D01*
D11*
X25400Y431800D03*
X25400Y508000D03*
X736600Y431800D03*
X736600Y508000D03*
D18*
X417600Y342900D03*
X293600Y342900D03*
X446000Y177800D03*
X570000Y177800D03*
D19*
X177800Y63500D03*
X203200Y63500D03*
D20*
X431800Y63500D03*
X355600Y63500D03*
D12*
X266700Y55880D02*
X266700Y71120D01*
X292100Y71120D02*
X292100Y55880D01*
X317500Y55880D02*
X317500Y71120D01*
D19*
X355600Y88900D03*
X431800Y88900D03*
X355600Y114300D03*
X431800Y114300D03*
D13*
X38100Y271600D03*
X38100Y312600D03*
X38100Y195400D03*
X38100Y236400D03*
X38100Y119200D03*
X38100Y160200D03*
X38100Y43000D03*
X38100Y84000D03*
D21*
X292100Y254000D03*
X292100Y317500D03*
X571500Y203200D03*
X622300Y254000D03*
X622300Y406400D03*
X177800Y101600D03*
X508000Y63500D03*
X520700Y393700D03*
X609600Y444500D03*
X317500Y76200D03*
X217830Y304800D03*
X266700Y469900D03*
X254000Y203200D03*
X292100Y469900D03*
X279400Y203200D03*
X317500Y469900D03*
X317500Y254000D03*
X342900Y469900D03*
X342900Y254000D03*
X279400Y101600D03*
X203200Y101600D03*
X203200Y127000D03*
X203200Y177800D03*
X368300Y114300D03*
X381000Y177800D03*
X76200Y406400D03*
X38100Y355600D03*
X76200Y203200D03*
X495300Y304800D03*
X482600Y368300D03*
X304800Y114300D03*
X469900Y203200D03*
X482600Y241300D03*
X215900Y63500D03*
X355600Y50800D03*
X215900Y469900D03*
X266700Y254000D03*
X393700Y469900D03*
M02*
